<?xml version="1.0" encoding="UTF-8" standalone="no"?>
<svg
   viewBox="0 0 497 621"
   height="621"
   width="497"
   xml:space="preserve"
   id="svg2"
   version="1.1"
   sodipodi:docname="MiniPieuvreToquéeLogo.svg"
   inkscape:version="1.1.2 (b8e25be833, 2022-02-05)"
   xmlns:inkscape="http://www.inkscape.org/namespaces/inkscape"
   xmlns:sodipodi="http://sodipodi.sourceforge.net/DTD/sodipodi-0.dtd"
   xmlns="http://www.w3.org/2000/svg"
   xmlns:svg="http://www.w3.org/2000/svg"
   xmlns:rdf="http://www.w3.org/1999/02/22-rdf-syntax-ns#"
   xmlns:cc="http://creativecommons.org/ns#"
   xmlns:dc="http://purl.org/dc/elements/1.1/"><sodipodi:namedview
     id="namedview1070"
     pagecolor="#505050"
     bordercolor="#ffffff"
     borderopacity="1"
     inkscape:pageshadow="0"
     inkscape:pageopacity="0"
     inkscape:pagecheckerboard="1"
     showgrid="false"
     inkscape:zoom="1.4142136"
     inkscape:cx="180.31223"
     inkscape:cy="410.82904"
     inkscape:window-width="1920"
     inkscape:window-height="1046"
     inkscape:window-x="-11"
     inkscape:window-y="-11"
     inkscape:window-maximized="1"
     inkscape:current-layer="svg2" /><metadata
     id="metadata8"><rdf:RDF><cc:Work
         rdf:about=""><dc:format>image/svg+xml</dc:format><dc:type
           rdf:resource="http://purl.org/dc/dcmitype/StillImage" /></cc:Work></rdf:RDF></metadata><defs
     id="defs6"><clipPath
   id="clipPath18"
   clipPathUnits="userSpaceOnUse"><path
     id="path16"
     d="M 0,1190.55 H 841.89 V 0 H 0 Z" /></clipPath><clipPath
   id="clipPath34"
   clipPathUnits="userSpaceOnUse"><path
     id="path32"
     d="M 0,1190.55 H 841.89 V 0 H 0 Z" /></clipPath><clipPath
   id="clipPath54"
   clipPathUnits="userSpaceOnUse"><path
     id="path52"
     d="M 605.072,569.253 Z" /></clipPath><clipPath
   id="clipPath78"
   clipPathUnits="userSpaceOnUse"><path
     id="path76"
     d="M 0,1190.55 H 841.89 V 0 H 0 Z" /></clipPath><clipPath
   id="clipPath278"
   clipPathUnits="userSpaceOnUse"><path
     id="path276"
     d="m 449.683,701.365 h 96.089 V 511.926 h -96.089 z" /></clipPath><clipPath
   id="clipPath294"
   clipPathUnits="userSpaceOnUse"><path
     id="path292"
     d="m 301.689,701.667 h 95.79 V 512.005 h -95.79 z" /></clipPath><clipPath
   id="clipPath1990"
   clipPathUnits="userSpaceOnUse"><path
     id="path1988"
     d="M 0,1190.55 H 841.89 V 0 H 0 Z" /></clipPath><clipPath
   id="clipPath2066"
   clipPathUnits="userSpaceOnUse"><path
     id="path2064"
     d="M 0,1190.55 H 841.89 V 0 H 0 Z" /></clipPath><clipPath
   id="clipPath2090"
   clipPathUnits="userSpaceOnUse"><path
     id="path2088"
     d="M 0,1190.55 H 841.89 V 0 H 0 Z" /></clipPath><clipPath
   id="clipPath2134"
   clipPathUnits="userSpaceOnUse"><path
     id="path2132"
     d="M 0,1190.55 H 841.89 V 0 H 0 Z" /></clipPath>
</defs><g
     id="g7471"
     transform="translate(-263.61199,-214.609)"><g
       id="g12"
       transform="matrix(1.3333333,0,0,-1.3333333,-34.983866,1333.6836)"><g
         clip-path="url(#clipPath18)"
         id="g14"><g
           transform="translate(567.2803,716.6279)"
           id="g20"><path
             id="path22"
             style="fill:#231f20;fill-opacity:1;fill-rule:evenodd;stroke:none"
             d="m 0,0 c -0.322,0.141 -0.646,0.282 -0.97,0.422 -0.55,-0.92 -1.339,-1.775 -1.607,-2.771 -1.739,-6.457 -3.375,-12.941 -5.016,-19.423 -0.291,-1.148 -0.494,-2.325 -0.631,-3.501 -0.041,-0.349 0.283,-0.74 0.44,-1.113 0.355,0.265 0.76,0.485 1.048,0.806 0.191,0.217 0.231,0.575 0.319,0.875 2.039,7.028 4.107,14.046 6.083,21.092 C -0.012,-2.467 -0.101,-1.208 0,0 m 11.277,-33.79 c 0.242,-0.066 0.482,-0.134 0.722,-0.201 0.314,0.469 0.733,0.898 0.92,1.412 2.717,7.528 5.418,15.061 8.082,22.607 0.384,1.089 1.457,2.63 -0.247,3.211 -1.493,0.508 -1.781,-1.29 -2.121,-2.313 -2.302,-6.942 -4.542,-13.905 -6.73,-20.883 -0.384,-1.223 -0.425,-2.553 -0.626,-3.833 m -36.112,-95.658 c 1.222,2.332 0.731,5.452 -1.006,6.403 -1.97,1.078 -5.102,-0.044 -6.245,-2.237 -1.418,-2.727 -0.992,-5.422 1.021,-6.456 1.985,-1.021 5.094,0.121 6.23,2.29 M 12.898,-4.427 c -0.241,-0.619 -0.317,-0.791 -0.376,-0.969 -2.626,-7.882 -5.277,-15.756 -7.841,-23.659 -0.27,-0.828 -0.028,-1.822 -0.023,-2.739 0.585,0.701 1.397,1.313 1.718,2.12 2.078,5.227 4.075,10.484 6.041,15.755 1.003,2.69 1.942,5.407 2.77,8.155 0.147,0.486 -0.252,1.53 -0.65,1.687 -0.5,0.199 -1.256,-0.25 -1.639,-0.35 M -1.151,-28.656 c 0.181,0.435 0.24,0.547 0.277,0.667 2.466,7.8 4.958,15.593 7.347,23.418 0.177,0.579 -0.387,1.385 -0.608,2.086 -0.627,-0.475 -1.644,-0.837 -1.822,-1.443 -2.316,-7.907 -4.524,-15.844 -6.707,-23.788 -0.115,-0.415 0.238,-0.957 0.374,-1.44 0.457,0.201 0.913,0.4 1.139,0.5 M -4.963,8.741 C -3.247,8.273 -1.444,7.828 0.332,7.292 9.48,4.532 18.62,1.737 27.77,-1.021 c 2.707,-0.816 2.229,-1.069 1.479,-3.035 -2.612,-6.843 -5.02,-13.767 -7.5,-20.66 -1.95,-5.419 -3.715,-10.915 -5.959,-16.209 -0.641,-1.513 -2.566,-2.582 -4.069,-3.611 -3.607,-2.463 -7.269,-4.85 -10.992,-7.131 -2.274,-1.393 -2.458,-3.836 -3.244,-5.923 -1.892,-5.035 -3.481,-10.187 -5.339,-15.239 -0.625,-1.7 -1.233,-3.072 1.636,-3.311 -0.985,-4.655 -1.77,-9.144 -2.902,-13.542 -2.354,-9.148 -4.804,-18.274 -7.392,-27.358 -1.335,-4.69 -2.958,-9.307 -4.631,-13.892 -0.923,-2.536 -2.757,-4.533 -5.156,-5.761 -4.778,-2.447 -10.686,-0.377 -10.604,6.714 0.052,4.555 1.586,8.72 3.165,12.872 3.544,9.306 7.09,18.611 10.765,27.865 2.149,5.412 4.55,10.723 6.884,16.186 0.42,-0.102 0.832,-0.182 1.23,-0.303 0.987,-0.3 1.559,-0.132 1.944,1.011 2.236,6.647 4.585,13.257 6.834,19.901 0.196,0.577 0.123,1.405 -0.147,1.958 -2.812,5.767 -5.737,11.479 -8.502,17.269 -0.461,0.964 -0.638,2.307 -0.384,3.336 1.893,7.646 3.915,15.262 5.924,22.88 1.368,5.191 2.782,10.37 4.227,15.745" /></g><g
           transform="translate(311.0049,591.8496)"
           id="g24"><path
             id="path26"
             style="fill:#231f20;fill-opacity:1;fill-rule:evenodd;stroke:none"
             d="m 0,0 c -0.073,0.245 -0.146,0.489 -0.22,0.734 -0.799,0.193 -1.716,0.707 -2.361,0.473 -0.523,-0.187 -1.065,-1.327 -0.98,-1.962 0.143,-1.054 1.135,-1.612 2.135,-1.054 0.62,0.345 0.96,1.19 1.426,1.809 m -16.571,21.677 c -1.369,0.438 -2.279,1.043 -2.92,0.831 -0.494,-0.162 -1.085,-1.566 -0.854,-2.03 0.322,-0.649 1.411,-1.328 2.093,-1.255 0.517,0.053 0.911,1.263 1.681,2.454 m 7.532,-9.294 c -1.385,0.368 -2.455,0.997 -2.93,0.694 -0.639,-0.407 -1.283,-1.701 -1.065,-2.304 0.217,-0.6 1.627,-1.263 2.273,-1.074 0.631,0.184 0.958,1.41 1.722,2.684 m -44.602,34.152 c -8.603,13.066 -15.192,26.688 -22.385,40.201 -1.129,-2.5 19.109,-39.096 22.385,-40.201 m 8.978,-19.952 c -3.191,5.104 -5.78,10.124 -9.179,14.518 -8.853,11.445 -15.549,24.134 -22.011,36.962 -3.439,6.827 -6.424,13.883 -9.605,20.839 -0.278,0.606 -0.489,1.243 -0.85,2.173 3.608,-0.148 6.689,-1.002 9.556,-2.485 5.059,-2.614 9.355,-6.26 12.875,-10.692 5.563,-7.002 10.903,-14.182 16.362,-21.267 4.851,-6.293 9.713,-12.577 14.612,-18.833 7.173,-9.159 14.39,-18.284 21.575,-27.434 C -6.191,13.82 -1.061,7.27 4.038,0.696 6.134,-2.007 7.533,-4.975 6.722,-8.525 6.079,-11.342 4.479,-13.481 1.634,-14.25 c -0.888,-0.239 -2.366,0.092 -2.965,0.731 -1.253,1.34 -2.467,2.933 -3.05,4.644 -1.947,5.701 -5.444,9.892 -10.869,12.537 -4.48,2.185 -6.371,6.186 -7.141,10.83 -0.753,4.538 -1.539,9.076 -4.207,12.946 -1.118,1.622 -2.584,3.03 -4.029,4.388 -0.928,0.872 -1.967,0.775 -3.215,0.1 -3.506,-1.895 -7.142,-3.548 -10.821,-5.343" /></g></g></g><g
       id="g28"
       transform="matrix(1.3333333,0,0,-1.3333333,-34.983866,1333.6836)"><g
         clip-path="url(#clipPath34)"
         id="g30"><g
           transform="translate(567.2803,716.6279)"
           id="g36"><path
             id="path38"
             style="fill:#231f20;fill-opacity:1;fill-rule:evenodd;stroke:none"
             d="m 0,0 c -0.322,0.141 -0.646,0.282 -0.97,0.422 -0.55,-0.92 -1.339,-1.775 -1.607,-2.771 -1.739,-6.457 -3.375,-12.941 -5.016,-19.423 -0.291,-1.148 -0.494,-2.325 -0.631,-3.501 -0.041,-0.349 0.283,-0.74 0.44,-1.113 0.355,0.265 0.76,0.485 1.048,0.806 0.191,0.217 0.231,0.575 0.319,0.875 2.039,7.028 4.107,14.046 6.083,21.092 C -0.012,-2.467 -0.101,-1.208 0,0 m 11.277,-33.79 c 0.242,-0.066 0.482,-0.134 0.722,-0.201 0.314,0.469 0.733,0.898 0.92,1.412 2.717,7.528 5.418,15.061 8.082,22.607 0.384,1.089 1.457,2.63 -0.247,3.211 -1.493,0.508 -1.781,-1.29 -2.121,-2.313 -2.302,-6.942 -4.542,-13.905 -6.73,-20.883 -0.384,-1.223 -0.425,-2.553 -0.626,-3.833 m -36.112,-95.658 c 1.222,2.332 0.731,5.452 -1.006,6.403 -1.97,1.078 -5.102,-0.044 -6.245,-2.237 -1.418,-2.727 -0.992,-5.422 1.021,-6.456 1.985,-1.021 5.094,0.121 6.23,2.29 M 12.898,-4.427 c -0.241,-0.619 -0.317,-0.791 -0.376,-0.969 -2.626,-7.882 -5.277,-15.756 -7.841,-23.659 -0.27,-0.828 -0.028,-1.822 -0.023,-2.739 0.585,0.701 1.397,1.313 1.718,2.12 2.078,5.227 4.075,10.484 6.041,15.755 1.003,2.69 1.942,5.407 2.77,8.155 0.147,0.486 -0.252,1.53 -0.65,1.687 -0.5,0.199 -1.256,-0.25 -1.639,-0.35 M -1.151,-28.656 c 0.181,0.435 0.24,0.547 0.277,0.667 2.466,7.8 4.958,15.593 7.347,23.418 0.177,0.579 -0.387,1.385 -0.608,2.086 -0.627,-0.475 -1.644,-0.837 -1.822,-1.443 -2.316,-7.907 -4.524,-15.844 -6.707,-23.788 -0.115,-0.415 0.238,-0.957 0.374,-1.44 0.457,0.201 0.913,0.4 1.139,0.5 M -4.963,8.741 C -3.247,8.273 -1.444,7.828 0.332,7.292 9.48,4.532 18.62,1.737 27.77,-1.021 c 2.707,-0.816 2.229,-1.069 1.479,-3.035 -2.612,-6.843 -5.02,-13.767 -7.5,-20.66 -1.95,-5.419 -3.715,-10.915 -5.959,-16.209 -0.641,-1.513 -2.566,-2.582 -4.069,-3.611 -3.607,-2.463 -7.269,-4.85 -10.992,-7.131 -2.274,-1.393 -2.458,-3.836 -3.244,-5.923 -1.892,-5.035 -3.481,-10.187 -5.339,-15.239 -0.625,-1.7 -1.233,-3.072 1.636,-3.311 -0.985,-4.655 -1.77,-9.144 -2.902,-13.542 -2.354,-9.148 -4.804,-18.274 -7.392,-27.358 -1.335,-4.69 -2.958,-9.307 -4.631,-13.892 -0.923,-2.536 -2.757,-4.533 -5.156,-5.761 -4.778,-2.447 -10.686,-0.377 -10.604,6.714 0.052,4.555 1.586,8.72 3.165,12.872 3.544,9.306 7.09,18.611 10.765,27.865 2.149,5.412 4.55,10.723 6.884,16.186 0.42,-0.102 0.832,-0.182 1.23,-0.303 0.987,-0.3 1.559,-0.132 1.944,1.011 2.236,6.647 4.585,13.257 6.834,19.901 0.196,0.577 0.123,1.405 -0.147,1.958 -2.812,5.767 -5.737,11.479 -8.502,17.269 -0.461,0.964 -0.638,2.307 -0.384,3.336 1.893,7.646 3.915,15.262 5.924,22.88 1.368,5.191 2.782,10.37 4.227,15.745" /></g><g
           transform="translate(559.5459,460.3584)"
           id="g40"><path
             id="path42"
             style="fill:#232864;fill-opacity:1;fill-rule:evenodd;stroke:none"
             d="m 0,0 c -6.401,-3.245 -13.43,-2.241 -15.701,2.24 -2.273,4.48 1.076,10.742 7.477,13.986 6.402,3.244 13.43,2.241 15.702,-2.24 C 9.749,9.505 6.4,3.243 0,0" /></g><g
           transform="translate(559.5459,460.3584)"
           id="g44"><path
             id="path46"
             style="fill:none;stroke:#232864;stroke-width:3.012;stroke-linecap:butt;stroke-linejoin:miter;stroke-miterlimit:10;stroke-dasharray:none;stroke-opacity:1"
             d="m 0,0 c -6.401,-3.245 -13.43,-2.241 -15.701,2.24 -2.273,4.48 1.076,10.742 7.477,13.986 6.402,3.244 13.43,2.241 15.702,-2.24 C 9.749,9.505 6.4,3.243 0,0 Z" /></g><g
           id="g48"><g
             id="g50" /><g
             id="g58"><g
               style="opacity:0.399994"
               id="g56"
               clip-path="url(#clipPath54)" /></g></g><g
           transform="translate(287.3301,460.5225)"
           id="g60"><path
             id="path62"
             style="fill:#232864;fill-opacity:1;fill-rule:evenodd;stroke:none"
             d="M 0,0 C 6.402,-3.245 13.429,-2.242 15.701,2.24 17.974,6.719 14.625,12.982 8.223,16.226 1.823,19.47 -5.206,18.467 -7.478,13.986 -9.749,9.504 -6.4,3.242 0,0" /></g><g
           transform="translate(287.3301,460.5225)"
           id="g64"><path
             id="path66"
             style="fill:none;stroke:#232864;stroke-width:3.012;stroke-linecap:butt;stroke-linejoin:miter;stroke-miterlimit:10;stroke-dasharray:none;stroke-opacity:1"
             d="M 0,0 C 6.402,-3.245 13.429,-2.242 15.701,2.24 17.974,6.719 14.625,12.982 8.223,16.226 1.823,19.47 -5.206,18.467 -7.478,13.986 -9.749,9.504 -6.4,3.242 0,0 Z" /></g><g
           transform="translate(474.2451,428.0947)"
           id="g68"><path
             id="path70"
             style="fill:#232864;fill-opacity:1;fill-rule:nonzero;stroke:none"
             d="m 0,0 c 0,0 -14.258,-1.308 -12.818,17.267 0,0 0.13,5.625 5.362,8.109 0,0 8.895,1.179 14.128,-8.109 C 6.672,17.267 14.389,3.925 0,0 m -102,0 c -14.389,3.925 -6.672,17.267 -6.672,17.267 5.232,9.288 14.127,8.109 14.127,8.109 5.232,-2.484 5.363,-8.109 5.363,-8.109 C -87.743,-1.308 -102,0 -102,0 m 218.622,106.826 c -2.02,5.144 -5.448,8.772 -11.143,9.324 -2.126,0.207 -3.343,0.943 -4.15,2.737 -1.111,1.171 -2.159,2.417 -3.295,3.558 -1.984,2.62 -3.738,4.815 -3.738,4.815 -0.256,1.459 -0.577,2.927 -0.943,4.399 -0.086,0.625 -0.234,1.237 -0.477,1.823 -1.052,3.821 -2.407,7.618 -3.888,11.226 0.169,0.597 0.524,1.172 1.097,1.752 2.759,4.146 1.745,12.146 -1.947,16.275 -2.176,2.434 -4.753,3.787 -8.044,3.656 -0.998,-0.04 -1.548,0.436 -1.629,1.395 -0.012,0.143 -0.001,0.272 0.018,0.394 0.517,0.047 1.019,0.103 1.507,0.166 0.151,-0.003 0.3,-0.011 0.45,-0.011 9.601,0 15.618,5.589 15.618,15.189 0,9.601 -2.716,13.578 -11.981,17.571 -2.195,0.947 -8.301,1.515 -10.373,0.641 -3.559,-0.361 -6.821,-1.812 -9.929,-3.729 -3.395,-2.752 -6.264,-5.914 -8.441,-9.632 -10.36,-15.292 -6.009,-36.289 -3.621,-44.77 l 0.079,-0.474 2.375,-7.639 c 0.57,-2.692 0.839,-4.965 0.887,-6.884 0,-0.408 -0.001,-0.815 -0.001,-1.223 -0.135,-5.088 -1.96,-7.357 -3.575,-8.371 -0.306,-0.135 -0.611,-0.27 -0.915,-0.406 h -0.002 c -1.026,-0.515 -2.172,-0.327 -3.247,-0.557 -0.556,0.034 -1.117,0.048 -1.675,0.045 -9.742,1.225 -10.424,16.702 -10.441,20.531 0.795,9.718 3.238,21.178 3.238,21.178 13.6,29.145 5.342,58.29 5.342,58.29 -5.17,25.67 -20.741,41.261 -38.383,50.718 -2.099,1.209 -4.249,2.344 -6.448,3.41 -1.713,0.612 -3.429,1.216 -4.975,2.209 -5.527,2.06 -11.075,4.052 -16.848,5.334 -1.431,-0.049 -2.83,0.113 -4.218,0.357 -0.618,0.125 -1.233,0.246 -1.842,0.362 -1.717,0.362 -3.429,0.761 -5.177,0.955 -0.723,0.081 -1.442,0.166 -2.159,0.253 -1.993,0.28 -3.911,0.511 -5.74,0.702 -1.803,0.363 -3.692,0.554 -5.447,0.619 -0.893,0.032 -1.779,0.034 -2.665,0.023 -0.086,0.004 -0.174,0.009 -0.259,0.014 l -0.038,0.031 c -0.085,-0.004 -0.18,-0.01 -0.267,-0.015 -0.085,0.005 -0.18,0.011 -0.265,0.015 l -0.038,-0.031 c -0.085,-0.005 -0.173,-0.01 -0.259,-0.014 -0.886,0.011 -1.772,0.009 -2.665,-0.023 -1.755,-0.065 -3.645,-0.256 -5.447,-0.619 -1.829,-0.191 -3.746,-0.422 -5.739,-0.702 -0.718,-0.087 -1.438,-0.172 -2.16,-0.253 -1.748,-0.194 -3.461,-0.593 -5.177,-0.955 -0.61,-0.116 -1.225,-0.237 -1.842,-0.362 -1.388,-0.244 -2.787,-0.406 -4.218,-0.357 -5.773,-1.282 -11.322,-3.274 -16.849,-5.334 -1.544,-0.993 -3.261,-1.597 -4.975,-2.209 -2.198,-1.066 -4.348,-2.201 -6.447,-3.41 -17.642,-9.457 -33.214,-25.048 -38.383,-50.718 0,0 -6.473,-22.892 1.517,-48.387 l -0.093,0.081 c 0,0 0.157,-0.396 0.416,-1.094 0.404,-1.231 0.837,-2.466 1.311,-3.707 1.22,-3.618 2.814,-8.838 3.846,-14.098 0.298,-1.806 0.598,-3.77 0.868,-5.785 0.152,-1.588 0.214,-3.125 0.158,-4.558 0,0 0.332,-2.357 0.274,-5.538 -0.029,-0.699 -0.068,-1.399 -0.094,-2.098 -0.509,-6.96 -3.208,-15.963 -13.976,-14.558 0,0 -0.172,-10e-4 -0.449,0.046 -0.189,0.054 -0.377,0.118 -0.56,0.209 h -0.002 c -0.421,0.188 -0.841,0.374 -1.261,0.559 -1.351,0.933 -2.865,2.94 -3.23,7.246 0,1.393 0.002,2.784 -0.007,4.175 0.098,1.459 0.297,3.093 0.618,4.919 0.303,0.981 0.666,1.948 0.989,2.924 0.141,0.321 0.289,0.646 0.446,0.973 0,0 1.913,5.221 3.154,12.716 0.514,2.707 0.867,5.436 0.906,7.902 0.563,9.137 -0.552,19.741 -6.387,28.353 -2.177,3.718 -5.045,6.88 -8.441,9.632 -3.108,1.917 -6.369,3.368 -9.928,3.729 -2.073,0.874 -8.179,0.306 -10.374,-0.641 -9.265,-3.993 -11.981,-7.97 -11.981,-17.571 0,-9.6 6.017,-15.189 15.617,-15.189 0.15,0 0.3,0.008 0.451,0.011 0.488,-0.063 0.99,-0.119 1.507,-0.166 0.02,-0.122 0.03,-0.251 0.018,-0.394 -0.081,-0.959 -0.63,-1.435 -1.629,-1.395 -3.291,0.131 -5.868,-1.222 -8.044,-3.656 -3.693,-4.129 -4.707,-12.129 -1.947,-16.275 0.573,-0.58 0.928,-1.155 1.097,-1.752 -1.481,-3.608 -2.836,-7.405 -3.888,-11.226 -0.244,-0.586 -0.391,-1.198 -0.477,-1.823 -0.366,-1.472 -0.687,-2.94 -0.942,-4.399 0,0 -1.755,-2.195 -3.739,-4.815 -1.136,-1.141 -2.184,-2.387 -3.295,-3.558 -0.807,-1.794 -2.024,-2.53 -4.15,-2.737 -5.695,-0.552 -9.123,-4.18 -11.144,-9.324 -2.234,-5.683 -0.958,-12.327 3.1,-16.179 0.974,-0.924 2.112,-1.566 3.314,-2.117 0.217,-8.168 2.487,-17.776 8.752,-28.36 1.112,-1.941 2.336,-3.81 3.657,-5.62 0.943,-1.334 1.943,-2.679 3.019,-4.038 0,0 0.203,-0.213 0.579,-0.577 0.171,-0.523 0.17,-1.114 -0.06,-1.815 -1.35,-4.113 -0.473,-7.949 1.987,-11.347 2.599,-3.588 6.039,-6.121 10.475,-7.086 1.211,-0.344 2.476,-0.254 3.704,-0.457 0.374,-0.09 0.751,-0.067 1.128,-0.04 0.903,0.247 1.844,0.281 2.752,0.503 2.006,0.591 4.004,1.194 5.199,3.13 0.572,0.901 1.258,1.408 2.084,1.565 4.936,-1.419 10.415,-2.333 16.354,-2.333 0,0 -10.593,-29.567 9.408,-50.484 0.19,-0.217 1.885,-2.21 2.048,-2.45 0.91,-0.923 2.613,-2.224 3.535,-3.134 1.888,-1.606 2.959,-2.03 4.213,-2.932 2.671,-1.679 5.477,-3.085 8.435,-4.191 0.004,0 0.007,-0.001 0.01,-0.002 l 0.001,-10e-4 c 0.002,-0.001 0.005,-0.001 0.007,-0.001 0.051,-0.008 2.184,-0.929 2.436,-0.985 2.832,-1.214 3.95,-1.422 7.31,-2.368 0,0 28.777,-5.812 45.743,15.611 0.384,0.403 0.779,0.794 1.152,1.211 1.3,1.983 2.599,3.967 3.899,5.95 1.108,2.658 2.216,5.315 3.323,7.973 0.389,1.49 0.777,2.981 1.165,4.473 0.106,0.625 0.198,1.251 0.285,1.878 0.098,0.424 0.2,0.843 0.294,1.278 0,0 3.09,10.848 -3.511,22.852 -0.406,1.011 -0.784,2.036 -1.259,3.012 -0.415,0.854 -0.45,1.564 -0.132,2.234 2.636,1.845 7.868,6.453 5.954,12.903 -0.358,1.727 -1.165,3.41 -2.286,5.066 0.832,1.459 4.029,6.464 9.006,6.879 h 0.46 c 4.977,-0.415 8.175,-5.42 9.006,-6.879 -1.12,-1.656 -1.928,-3.339 -2.287,-5.066 -1.913,-6.45 3.32,-11.058 5.955,-12.903 0.318,-0.67 0.282,-1.38 -0.131,-2.234 -0.476,-0.976 -0.855,-2.001 -1.26,-3.012 -6.601,-12.004 -3.512,-22.852 -3.512,-22.852 0.094,-0.435 0.196,-0.854 0.295,-1.278 0.086,-0.627 0.178,-1.253 0.285,-1.878 0.388,-1.492 0.776,-2.983 1.164,-4.473 1.108,-2.658 2.216,-5.315 3.324,-7.973 l 3.899,-5.95 c 0.373,-0.417 0.768,-0.808 1.152,-1.211 16.966,-21.423 45.743,-15.611 45.743,-15.611 3.36,0.946 4.478,1.154 7.309,2.368 0.253,0.056 2.385,0.977 2.438,0.985 h 0.006 c 0,0 0,0.001 0.001,0.002 0.003,0.001 0.007,0.002 0.009,0.002 2.958,1.106 5.765,2.512 8.436,4.191 1.254,0.902 2.325,1.326 4.214,2.932 0.921,0.91 2.625,2.211 3.533,3.134 0.164,0.24 1.859,2.233 2.049,2.45 20.001,20.917 9.407,50.484 9.407,50.484 5.94,0 11.419,0.914 16.355,2.333 0.826,-0.157 1.511,-0.664 2.085,-1.565 1.194,-1.936 3.191,-2.539 5.198,-3.13 0.907,-0.222 1.849,-0.256 2.752,-0.503 0.377,-0.027 0.754,-0.05 1.128,0.04 1.227,0.203 2.493,0.113 3.705,0.457 4.435,0.965 7.876,3.498 10.473,7.086 2.46,3.398 3.337,7.234 1.988,11.347 -0.23,0.701 -0.232,1.292 -0.06,1.815 0.375,0.364 0.58,0.577 0.58,0.577 1.075,1.359 2.075,2.704 3.019,4.038 1.32,1.81 2.544,3.679 3.656,5.62 6.266,10.584 8.535,20.192 8.751,28.36 1.203,0.551 2.341,1.193 3.315,2.117 4.058,3.852 5.333,10.496 3.099,16.179" /></g></g></g><g
       clip-path="url(#clipPath78)"
       id="g74"
       transform="matrix(1.3333333,0,0,-1.3333333,-34.983866,1333.6836)"><g
         transform="translate(562.5469,536.918)"
         id="g80"><path
           id="path82"
           style="fill:#ef3627;fill-opacity:1;fill-rule:nonzero;stroke:none"
           d="M 0,0 C -1.883,3.576 -2.187,-1.716 -2.187,-1.716 -6.257,-21.265 -17.912,-26.261 -17.912,-26.261 -32.158,-33.536 -46.587,-27 -46.587,-27 c -14.245,8.881 -16.527,17.823 -16.527,17.823 -1.605,3.206 -0.432,3.022 -0.432,3.022 0.802,0.739 1.419,-0.802 1.419,-0.802 l 0.986,-1.604 c 11.347,-11.778 17.39,-13.135 17.39,-13.135 16.896,-4.379 23.742,11.163 23.742,11.163 1.929,2.08 3.587,8.488 4.317,14.183 0.763,5.957 0.554,11.162 0.554,11.162 0,7.462 -4.529,21.868 -5.426,24.051 -2.836,6.907 -3.951,9.043 -4.687,15.416 -0.651,5.648 0.802,9.436 0.802,9.436 1.665,5.859 0.308,10.853 0.308,10.853 -0.185,3.762 1.111,3.577 1.111,3.577 1.356,0.247 1.602,-1.727 1.602,-1.727 3.269,-9.681 10.114,-11.1 10.114,-11.1 13.134,-1.973 13.876,8.881 13.876,8.881 0.308,12.95 -12.581,14.183 -12.581,14.183 -12.704,2.528 -19.184,-11.115 -19.184,-11.115 -9.293,-13.713 -3.446,-36.943 -3.446,-36.943 1.048,-3.372 4.72,-17.307 4.72,-17.307 2.098,-13.265 -7.193,-17.835 -7.193,-17.835 -8.692,-3.597 -15.812,3.447 -15.812,3.447 -2.097,1.573 -1.648,-1.499 -1.648,-1.499 1.799,-9.143 5.845,-13.488 5.845,-13.488 1.799,-1.573 1.124,-2.098 1.124,-2.098 -0.975,-0.823 -1.798,0.149 -1.798,0.149 l -3.376,4.01 c -18.738,29.669 -2.136,62.228 -2.136,62.228 10.93,21.47 1.952,58.167 1.952,58.167 -20.3,51.14 -87.055,52.311 -87.055,52.311 l -0.771,-0.405 -0.769,0.405 c 0,0 -66.757,-1.171 -87.056,-52.311 0,0 -8.978,-36.697 1.952,-58.167 0,0 16.602,-32.559 -2.136,-62.228 l -3.376,-4.01 c 0,0 -0.823,-0.972 -1.797,-0.149 0,0 -0.676,0.525 1.123,2.098 0,0 4.047,4.345 5.845,13.488 0,0 0.449,3.072 -1.649,1.499 0,0 -7.118,-7.044 -15.811,-3.447 0,0 -9.292,4.57 -7.194,17.835 0,0 3.673,13.935 4.722,17.307 0,0 5.846,23.23 -3.447,36.943 0,0 -6.48,13.643 -19.184,11.115 0,0 -12.888,-1.233 -12.58,-14.183 0,0 0.74,-10.854 13.875,-8.881 0,0 6.845,1.419 10.113,11.1 0,0 0.247,1.974 1.604,1.727 0,0 1.295,0.185 1.11,-3.577 0,0 -1.357,-4.994 0.308,-10.853 0,0 1.454,-3.788 0.802,-9.436 -0.736,-6.373 -1.85,-8.509 -4.687,-15.416 -0.896,-2.183 -5.427,-16.589 -5.427,-24.051 0,0 -0.208,-5.205 0.555,-11.162 0.73,-5.695 2.388,-12.103 4.317,-14.183 0,0 6.846,-15.542 23.742,-11.163 0,0 3.275,0.607 9.032,5.269 2.448,1.98 5.578,4.519 8.566,8.52 l 0.778,0.95 c 0,0 0.87,1.145 1.419,0.802 0,0 1.172,0.184 -0.432,-3.022 0,0 -0.621,-2.163 -2.847,-5.389 -2.324,-3.37 -6.404,-7.898 -13.68,-12.434 0,0 -14.43,-6.536 -28.675,0.739 0,0 -11.655,4.996 -15.726,24.545 0,0 -0.303,5.292 -2.186,1.716 0,0 -10.449,-17.697 5.553,-40.665 0,0 14.403,-17.132 39.348,-18.827 0,0 2.044,0.202 6.4,4.613 0,0 11.108,11.86 19.674,17.509 0,0 12.426,11.483 13.931,15.249 l 0.565,1.506 c 0,0 0.377,2.07 1.507,1.035 0,0 1.506,0.095 -0.377,-3.482 0,0 -0.941,-5.837 -23.909,-27.487 0,0 -28.805,-21.556 -21.368,-53.373 0,0 6.442,-26.049 32.84,-32.827 0,0 23.658,-6.926 34.189,20.194 0,0 2.885,11.109 -1.876,18.61 0,0 -2.019,4.616 -2.307,0.866 0,0 -5.486,-20.243 -21.35,-13.129 0,0 -21.927,6.492 -7.646,32.313 l 3.174,2.453 c 0,0 0.578,1.153 -0.144,2.74 0,0 -1.587,9.809 6.78,11.397 0,0 8.972,1.498 12.429,1.207 0.148,-0.013 0.876,-0.048 0.995,-0.002 1.093,0.419 1.569,1.014 2.733,1.679 l 23.801,19.765 c 0,0 4.343,3.718 11.098,4.501 l 2.434,0.088 c 0.369,0.023 0.727,0.022 1.086,0.023 l 2.5,-0.159 c 6.252,-0.818 10.592,-4.453 10.592,-4.453 l 23.8,-19.765 c 0.987,-1.061 2.11,-1.81 3.318,-1.73 0.127,0.008 0.262,0.04 0.41,0.053 3.457,0.291 12.429,-1.207 12.429,-1.207 8.367,-1.588 6.78,-11.397 6.78,-11.397 -0.721,-1.587 -0.055,-2.357 -0.055,-2.357 l 1.501,-1.269 1.584,-1.567 c 14.281,-25.821 -7.646,-32.313 -7.646,-32.313 -20.012,-7.275 -21.35,13.129 -21.35,13.129 -0.288,3.75 -2.308,-0.866 -2.308,-0.866 -4.759,-7.501 -1.875,-18.61 -1.875,-18.61 10.531,-27.12 34.189,-20.194 34.189,-20.194 26.398,6.778 32.841,32.827 32.841,32.827 7.435,31.817 -21.368,53.373 -21.368,53.373 -22.968,21.65 -23.911,27.487 -23.911,27.487 -1.252,3.059 -0.376,3.482 -0.376,3.482 1.13,1.035 1.506,-1.035 1.506,-1.035 l 0.565,-1.506 c 1.507,-3.766 13.931,-15.249 13.931,-15.249 8.567,-5.649 19.674,-17.509 19.674,-17.509 4.358,-4.411 8.12,-4.424 8.12,-4.424 24.946,1.695 37.627,18.638 37.627,18.638 C 10.448,-17.697 0,0 0,0" /></g><g
         transform="translate(478.3633,459.7168)"
         id="g84"><path
           id="path86"
           style="fill:#9b1f94;fill-opacity:1;fill-rule:evenodd;stroke:none"
           d="m 0,0 c 0,0 1.748,1.311 3.924,-1.606 0,0 9.408,-10.733 5.133,-18.033 0,0 -1.391,-2.434 -0.922,0.264 0,0 1.58,7.633 -11.45,14.742 0,0 -2.633,1.446 0,2.632 z" /></g><g
         transform="translate(455.832,416.6504)"
         id="g88"><path
           id="path90"
           style="fill:#484da9;fill-opacity:1;fill-rule:evenodd;stroke:none"
           d="m 0,0 c 0,0 18.821,-16.848 42.118,2.105 0,0 25.609,23.257 -2.889,72.044 -0.08,0.138 0.82,-0.145 0.753,0 0,0 10.955,-8.465 19.115,-21.759 0,0 22.244,-31.195 -8.424,-60.283 0,0 -20.559,-18.547 -41.986,-3.948 0,0 -2.546,1.967 -4.714,4.678 C 2.282,-5.047 1.038,-2.483 0,0" /></g><g
         transform="translate(501.6445,491.2637)"
         id="g92"><path
           id="path94"
           style="fill:#ba47aa;fill-opacity:1;fill-rule:nonzero;stroke:none"
           d="m 0,0 c 0,0 38.566,-14.577 59.275,11.78 0,0 -2.115,-5.78 -8.471,-11.565 -6.946,-6.321 -18.71,-12.733 -32.274,-13.717 0,0 -4.572,-0.538 -6.589,2.152 z" /></g><g
         transform="translate(550.3242,624.9312)"
         id="g96"><path
           id="path98"
           style="fill:#ba47aa;fill-opacity:1;fill-rule:nonzero;stroke:none"
           d="m 0,0 c 0,0 -1.521,-0.746 -2.06,-0.997 -0.698,-0.324 -0.704,-0.384 -2.002,-1.245 -6.536,-4.329 -18.504,-16.26 -14.12,-44.072 0,0 1.239,-4.247 2.573,-8.818 3.31,-11.349 6.671,-29.908 -10.776,-28.566 0,0 17.816,1.466 7.655,29.431 0,0 -12.821,29.291 7.572,51.078 0,0 8.501,5.381 11.158,3.189" /></g><g
         transform="translate(519.6104,471.4961)"
         id="g100"><path
           id="path102"
           style="fill:#9b1f94;fill-opacity:1;fill-rule:nonzero;stroke:none"
           d="m 0,0 c 0,0 -1.57,1.651 0.295,1.828 14.254,1.344 46.867,12.5 50.293,44.242 0,0 2.448,19.311 -6.589,26.087 0,0 -7.073,6.671 -0.672,7.8 0,0 7.315,-1.532 13.715,-17.346 0,0 10.624,-36.981 -19.363,-59.035 0,0 -8.606,-6.239 -25.549,-8.875 0,0 -8.312,-1.85 -8.608,-0.538 z" /></g><g
         transform="translate(550.2969,465.5244)"
         id="g104"><path
           id="path106"
           style="fill:#9b1f94;fill-opacity:1;fill-rule:nonzero;stroke:none"
           d="m 0,0 c 0,0 9.547,5.245 10.623,6.59 0,0 2.823,3.093 3.227,-0.269 0,0 -2.017,-10.489 -13.985,-9.279 0,0 -6.32,1.211 0.135,2.958" /></g><g
         transform="translate(578.8818,538.6914)"
         id="g108"><path
           id="path110"
           style="fill:#9b1f94;fill-opacity:1;fill-rule:nonzero;stroke:none"
           d="m 0,0 c 0,0 4.206,-6.032 4.767,-17.951 0,0 1.964,0.702 4.768,6.451 0,0 3.366,10.518 -6.45,12.341 0,0 -4.066,1.682 -3.085,-0.841" /></g><g
         transform="translate(562.4932,585.0986)"
         id="g112"><path
           id="path114"
           style="fill:#9b1f94;fill-opacity:1;fill-rule:nonzero;stroke:none"
           d="m 0,0 c 1.684,-4.332 0.559,-8.811 -2.512,-10.003 -3.069,-1.194 -6.925,1.35 -8.607,5.68 -1.684,4.332 -0.56,8.81 2.511,10.003 C -5.538,6.874 -1.683,4.33 0,0" /></g><g
         transform="translate(393.3428,480.0098)"
         id="g116"><path
           id="path118"
           style="fill:#96dce7;fill-opacity:1;fill-rule:nonzero;stroke:none"
           d="m 0,0 c 0,0 15.638,13.081 17.442,13.983 0,0 11.429,9.774 24.661,0.453 L 59.396,0.602 c 0,0 4.975,-2.053 -1.015,-4.256 L 53.534,-5.87 c 0,0 -2.109,-0.295 -4.214,2.863 L 37.893,6.916 c 0,0 -9.323,6.768 -17.293,-1.503 L 9.474,-4.361 c 0,0 -1.655,-1.655 -4.061,-0.602 l -5.563,2.557 c 0,0 -1.661,0.922 0.15,2.406" /></g><g
         transform="translate(435.5957,474.5967)"
         id="g120"><path
           id="path122"
           style="fill:#9b1f94;fill-opacity:1;fill-rule:nonzero;stroke:none"
           d="m 0,0 c 0,0 -3.459,-4.661 1.955,-8.723 0,0 1.354,-1.502 1.804,0.752 l 1.204,2.708 c 0,0 1.052,0.902 -1.054,3.458 L 1.955,0 C 1.955,0 0.602,1.955 0,0" /></g><g
         transform="translate(467.4736,472.1904)"
         id="g124"><path
           id="path126"
           style="fill:#484da9;fill-opacity:1;fill-rule:evenodd;stroke:none"
           d="m 0,0 c 0,0 5.413,-0.451 10.677,-3.008 0,0 4.211,-2.706 -1.655,-5.263 0,0 -24.21,-10.674 -27.367,-32.779 0,0 -3.008,-15.338 9.925,-26.916 0,0 1.202,-2.406 -3.309,0.15 0,0 -19.247,8.572 -20.149,33.983 0,0 0.149,12.481 3.008,14.736 0,0 0.901,3.91 2.706,1.805 0,0 4.36,-4.512 13.533,0.451 0,0 10.225,5.714 10.225,13.684 0,0 -0.903,4.511 2.406,3.157" /></g><g
         transform="translate(459.3555,471.1934)"
         id="g128"><path
           id="path130"
           style="fill:#9b1f94;fill-opacity:1;fill-rule:evenodd;stroke:none"
           d="m 0,0 c 1.89,-2.388 -0.036,-7.057 -4.3,-10.433 -4.266,-3.376 -9.256,-4.178 -11.144,-1.79 -1.891,2.386 0.036,7.059 4.3,10.434 C -6.877,1.587 -1.89,2.389 0,0" /></g><g
         transform="translate(442.8145,451.8906)"
         id="g132"><path
           id="path134"
           style="fill:#484da9;fill-opacity:1;fill-rule:evenodd;stroke:none"
           d="m 0,0 c 0,0 -9.474,-27.517 8.871,-45.109 0,0 -19.557,15.111 -15.729,36.803 0.028,0.161 0.068,0.324 0.089,0.488 0.753,5.563 2.558,9.021 2.558,9.021 0,0 0.901,3.309 2.706,1.805 0,0 2.707,-0.602 1.505,-3.008" /></g><g
         transform="translate(370.2148,459.1641)"
         id="g136"><path
           id="path138"
           style="fill:#9b1f94;fill-opacity:1;fill-rule:evenodd;stroke:none"
           d="m 0,0 c 0,0 -2.237,2.896 -5.001,-1.054 0,0 -9.196,-8.634 -5.133,-18.032 0,0 1.579,-2.631 0.921,0.264 0,0 -1.579,7.633 11.451,14.742 0,0 2.633,1.446 0,2.632 z" /></g><g
         transform="translate(391.6689,416.6504)"
         id="g140"><path
           id="path142"
           style="fill:#484da9;fill-opacity:1;fill-rule:evenodd;stroke:none"
           d="m 0,0 c 0,0 -18.821,-16.848 -42.118,2.105 0,0 -26.26,22.424 2.237,71.213 0.079,0.136 -0.198,-0.277 -0.132,-0.132 0,0 -10.924,-7.502 -19.084,-20.796 0,0 -22.244,-31.195 8.423,-60.283 0,0 22.453,-18.558 41.987,-3.948 0,0 2.546,1.967 4.714,4.678 1.69,2.116 2.934,4.68 3.973,7.163" /></g><g
         transform="translate(345.8569,491.2637)"
         id="g144"><path
           id="path146"
           style="fill:#ba47aa;fill-opacity:1;fill-rule:nonzero;stroke:none"
           d="m 0,0 c 0,0 -38.567,-14.577 -59.276,11.78 0,0 2.114,-5.78 8.472,-11.565 6.945,-6.321 18.71,-12.733 32.273,-13.717 0,0 4.573,-0.538 6.59,2.152 z" /></g><g
         transform="translate(327.8911,471.4961)"
         id="g148"><path
           id="path150"
           style="fill:#9b1f94;fill-opacity:1;fill-rule:nonzero;stroke:none"
           d="m 0,0 c 0,0 1.569,1.651 -0.295,1.828 -14.255,1.344 -46.869,12.5 -50.294,44.242 0,0 -2.448,19.311 6.589,26.087 0,0 7.073,6.671 0.672,7.8 0,0 -7.315,-1.532 -13.716,-17.346 0,0 -10.623,-36.981 19.364,-59.035 0,0 8.607,-6.239 25.55,-8.875 0,0 10.382,-1.856 8.607,-0.538 z" /></g><g
         transform="translate(297.2041,465.5244)"
         id="g152"><path
           id="path154"
           style="fill:#9b1f94;fill-opacity:1;fill-rule:nonzero;stroke:none"
           d="m 0,0 c 0,0 -9.547,5.245 -10.624,6.59 0,0 -2.823,3.093 -3.227,-0.269 0,0 2.018,-10.489 13.986,-9.279 0,0 6.32,1.211 -0.135,2.958" /></g><g
         transform="translate(285.0073,585.0986)"
         id="g160"><path
           id="path162"
           style="fill:#9b1f94;fill-opacity:1;fill-rule:nonzero;stroke:none"
           d="m 0,0 c -1.683,-4.332 -0.559,-8.811 2.513,-10.003 3.069,-1.194 6.924,1.35 8.607,5.68 C 12.803,0.009 11.679,4.487 8.608,5.68 5.538,6.874 1.684,4.33 0,0" /></g><g
         transform="translate(454.1582,480.0098)"
         id="g164"><path
           id="path166"
           style="fill:#9b1f94;fill-opacity:1;fill-rule:nonzero;stroke:none"
           d="m 0,0 c 0,0 -15.638,13.081 -17.442,13.983 0,0 -11.429,9.774 -24.661,0.453 L -59.396,0.602 c 0,0 -4.812,-3.008 1.204,-3.308 l 3.366,-2.472 c 0,0 2.17,-0.831 5.506,2.171 l 11.427,9.923 c 0,0 9.323,6.768 17.292,-1.503 l 11.127,-9.774 c 0,0 1.655,-1.655 4.061,-0.602 l 5.563,2.557 c 0,0 2.657,0.831 -0.15,2.406" /></g><g
         transform="translate(411.9053,474.5967)"
         id="g168"><path
           id="path170"
           style="fill:#9b1f94;fill-opacity:1;fill-rule:nonzero;stroke:none"
           d="m 0,0 c 0,0 3.458,-4.661 -1.955,-8.723 0,0 -1.354,-1.502 -1.805,0.752 l -1.203,2.708 c 0,0 -1.052,0.902 1.053,3.458 l 1.493,1.626 c 0,0 1.815,2.134 2.417,0.179" /></g><g
         transform="translate(380.0273,472.1904)"
         id="g172"><path
           id="path174"
           style="fill:#484da9;fill-opacity:1;fill-rule:evenodd;stroke:none"
           d="m 0,0 c 0,0 -5.414,-0.451 -10.677,-3.008 0,0 -4.21,-2.706 1.655,-5.263 0,0 24.209,-10.674 27.367,-32.779 0,0 3.007,-15.338 -9.925,-26.916 0,0 -1.203,-2.406 3.309,0.15 0,0 19.246,8.572 20.149,33.983 0,0 -0.15,12.481 -3.007,14.736 0,0 -0.903,3.91 -2.708,1.805 0,0 -4.36,-4.512 -13.532,0.451 0,0 -10.225,5.714 -10.225,13.684 0,0 0.903,4.511 -2.406,3.157" /></g><g
         transform="translate(388.1445,471.1934)"
         id="g176"><path
           id="path178"
           style="fill:#9b1f94;fill-opacity:1;fill-rule:evenodd;stroke:none"
           d="m 0,0 c -1.888,-2.388 0.037,-7.057 4.301,-10.433 4.266,-3.376 9.255,-4.178 11.144,-1.79 1.89,2.386 -0.037,7.059 -4.3,10.434 C 6.878,1.587 1.89,2.389 0,0" /></g><g
         transform="translate(398.8228,465.2734)"
         id="g180"><path
           id="path182"
           style="fill:#232864;fill-opacity:1;fill-rule:nonzero;stroke:none"
           d="m 0,0 c 0,0 -2.398,1.204 -3.007,2.557 0,0 -0.361,1.832 -1.607,1.463 0,0 -0.784,-0.323 -0.476,-1.988 0.262,-1.419 1.279,-3.546 4.037,-4.136 1.411,0 0.887,-0.255 2.106,0.149 0,0 1.503,1.353 -1.053,1.955" /></g><g
         transform="translate(449.3721,465.0215)"
         id="g184"><path
           id="path186"
           style="fill:#232864;fill-opacity:1;fill-rule:nonzero;stroke:none"
           d="m 0,0 c 0,0 2.397,1.205 3.007,2.557 0,0 0.361,1.832 1.606,1.463 0,0 0.785,-0.322 0.477,-1.987 -0.262,-1.419 -1.278,-3.546 -4.037,-4.137 -1.411,0 -0.887,-0.255 -2.106,0.149 0,0 -1.503,1.353 1.053,1.955" /></g><g
         transform="translate(404.6865,451.8906)"
         id="g188"><path
           id="path190"
           style="fill:#484da9;fill-opacity:1;fill-rule:evenodd;stroke:none"
           d="m 0,0 c 0,0 9.474,-27.517 -8.871,-45.109 0,0 19.556,15.111 15.729,36.803 -0.028,0.161 -0.068,0.324 -0.09,0.488 -0.753,5.563 -2.557,9.021 -2.557,9.021 0,0 -0.902,3.309 -2.707,1.805 C 1.504,3.008 -1.203,2.406 0,0" /></g><g
         transform="translate(547.3916,597.8203)"
         id="g192"><path
           id="path194"
           style="fill:#9b1f94;fill-opacity:1;fill-rule:nonzero;stroke:none"
           d="m 0,0 0.941,-4.518 c 0,0 0,-1.506 -0.565,-2.824 0,0 -2.259,-5.648 0,-11.296 0,0 1.318,-6.777 7.908,-8.847 0,0 3.765,0.187 4.329,-2.26 l 3.201,-8.66 c 0,0 2.071,-4.707 -1.883,-3.766 0,0 -7.153,-0.941 -6.212,-9.79 0,0 3.011,-19.579 -11.484,-29.933 0,0 -4.33,-1.505 -1.883,0.753 0,0 13.932,16.567 9.224,43.113 0,0 -3.806,16.196 -5.971,21.672 -0.153,0.386 -1.569,8.06 -1.599,8.315 -0.549,4.603 -0.525,7.1 -0.336,8.041 0.188,0.941 -0.189,-0.941 -0.189,-0.941 0,0 -0.187,3.765 2.636,2.824 0,0 1.695,0.188 1.883,-1.883" /></g><g
         transform="translate(295.1763,624.9312)"
         id="g196"><path
           id="path198"
           style="fill:#ba47aa;fill-opacity:1;fill-rule:nonzero;stroke:none"
           d="m 0,0 c 0,0 1.52,-0.746 2.059,-0.997 0.699,-0.324 0.704,-0.384 2.003,-1.245 6.535,-4.329 18.503,-16.26 14.119,-44.072 0,0 -1.239,-4.247 -2.573,-8.818 -3.309,-11.349 -6.671,-29.908 10.776,-28.566 0,0 -17.816,1.466 -7.654,29.431 0,0 12.82,29.291 -7.572,51.078 0,0 -8.501,5.381 -11.158,3.189" /></g><g
         transform="translate(298.1079,597.8203)"
         id="g200"><path
           id="path202"
           style="fill:#9b1f94;fill-opacity:1;fill-rule:nonzero;stroke:none"
           d="m 0,0 -0.941,-4.518 c 0,0 0,-1.506 0.565,-2.824 0,0 2.259,-5.648 0,-11.296 0,0 -1.318,-6.777 -7.908,-8.847 0,0 -3.765,0.187 -4.33,-2.26 l -3.2,-8.66 c 0,0 -2.071,-4.707 1.883,-3.766 0,0 7.154,-0.941 6.212,-9.79 0,0 -3.012,-19.579 11.484,-29.933 0,0 4.331,-1.505 1.883,0.753 0,0 -13.932,16.567 -9.225,43.113 0,0 3.808,16.196 5.972,21.672 0.152,0.386 1.569,8.06 1.599,8.315 0.549,4.603 0.525,7.1 0.336,8.041 -0.188,0.941 0.189,-0.941 0.189,-0.941 0,0 0.188,3.765 -2.636,2.824 C 1.883,1.883 0.188,2.071 0,0" /></g><g
         transform="translate(415.4194,609.4922)"
         id="g204"><path
           id="path206"
           style="fill:#484da9;fill-opacity:1;fill-rule:nonzero;stroke:none"
           d="m 0,0 c 0,-14.765 -11.969,-26.732 -26.733,-26.732 -14.765,0 -26.734,11.967 -26.734,26.732 0,14.765 11.969,26.733 26.734,26.733 C -11.969,26.733 0,14.765 0,0" /></g><g
         transform="translate(419.561,620.0356)"
         id="g208"><path
           id="path210"
           style="fill:#96dce7;fill-opacity:1;fill-rule:nonzero;stroke:none"
           d="m 0,0 c 0,-14.765 -11.969,-26.733 -26.733,-26.733 -14.765,0 -26.734,11.968 -26.734,26.733 0,14.764 11.969,26.733 26.734,26.733 C -11.969,26.733 0,14.764 0,0" /></g><g
         transform="translate(416.9258,614.3872)"
         id="g212"><path
           id="path214"
           style="fill:#232864;fill-opacity:1;fill-rule:nonzero;stroke:none"
           d="m 0,0 c 0,-14.765 -11.97,-26.733 -26.734,-26.733 -14.764,0 -26.733,11.968 -26.733,26.733 0,14.765 11.969,26.734 26.733,26.734 C -11.97,26.734 0,14.765 0,0" /></g><g
         transform="translate(411.8032,614.7642)"
         id="g216"><path
           id="path218"
           style="fill:#ffffff;fill-opacity:1;fill-rule:nonzero;stroke:none"
           d="m 0,0 c 0,-11.936 -9.676,-21.612 -21.611,-21.612 -11.936,0 -21.612,9.676 -21.612,21.612 0,11.935 9.676,21.611 21.612,21.611 C -9.676,21.611 0,11.935 0,0" /></g><g
         transform="translate(404.877,607.0449)"
         id="g220"><path
           id="path222"
           style="fill:#3b46a3;fill-opacity:1;fill-rule:nonzero;stroke:none"
           d="m 0,0 c 0,-8.213 -6.659,-14.872 -14.873,-14.872 -8.214,0 -14.873,6.659 -14.873,14.872 0,8.214 6.659,14.873 14.873,14.873 C -6.659,14.873 0,8.214 0,0" /></g><g
         transform="translate(399.9814,604.7856)"
         id="g224"><path
           id="path226"
           style="fill:#5ccaec;fill-opacity:1;fill-rule:nonzero;stroke:none"
           d="m 0,0 c 0,-6.758 -5.562,-12.237 -12.425,-12.237 -6.862,0 -12.426,5.479 -12.426,12.237 0,6.758 5.564,12.238 12.426,12.238 C -5.562,12.238 0,6.758 0,0" /></g><g
         transform="translate(399.6055,607.0449)"
         id="g228"><path
           id="path230"
           style="fill:#15182a;fill-opacity:1;fill-rule:nonzero;stroke:none"
           d="m 0,0 c 0,-5.51 -4.467,-9.978 -9.979,-9.978 -5.51,0 -9.977,4.468 -9.977,9.978 0,5.51 4.467,9.979 9.977,9.979 C -4.467,9.979 0,5.51 0,0" /></g><g
         transform="translate(406.0059,604.5977)"
         id="g232"><path
           id="path234"
           style="fill:#ffffff;fill-opacity:1;fill-rule:nonzero;stroke:none"
           d="m 0,0 c 0,-2.287 -1.854,-4.142 -4.141,-4.142 -2.288,0 -4.142,1.855 -4.142,4.142 0,2.287 1.854,4.142 4.142,4.142 C -1.854,4.142 0,2.287 0,0" /></g><g
         transform="translate(464.5576,611.7344)"
         id="g236"><path
           id="path238"
           style="fill:#484da9;fill-opacity:1;fill-rule:nonzero;stroke:none"
           d="m 0,0 c 0,-10.596 -8.589,-19.186 -19.185,-19.186 -10.594,0 -19.184,8.59 -19.184,19.186 0,10.595 8.59,19.185 19.184,19.185 C -8.589,19.185 0,10.595 0,0" /></g><g
         transform="translate(467.5312,619.2998)"
         id="g240"><path
           id="path242"
           style="fill:#96dce7;fill-opacity:1;fill-rule:nonzero;stroke:none"
           d="m 0,0 c 0,-10.596 -8.591,-19.185 -19.187,-19.185 -10.594,0 -19.184,8.589 -19.184,19.185 0,10.596 8.59,19.185 19.184,19.185 C -8.591,19.185 0,10.596 0,0" /></g><g
         transform="translate(465.6396,615.2466)"
         id="g244"><path
           id="path246"
           style="fill:#232864;fill-opacity:1;fill-rule:nonzero;stroke:none"
           d="m 0,0 c 0,-10.596 -8.591,-19.185 -19.187,-19.185 -10.594,0 -19.184,8.589 -19.184,19.185 0,10.596 8.59,19.186 19.184,19.186 C -8.591,19.186 0,10.596 0,0" /></g><g
         transform="translate(461.9629,615.5171)"
         id="g248"><path
           id="path250"
           style="fill:#ffffff;fill-opacity:1;fill-rule:nonzero;stroke:none"
           d="m 0,0 c 0,-8.566 -6.943,-15.509 -15.51,-15.509 -8.565,0 -15.509,6.943 -15.509,15.509 0,8.565 6.944,15.509 15.509,15.509 C -6.943,15.509 0,8.565 0,0" /></g><g
         transform="translate(456.9932,621.8672)"
         id="g252"><path
           id="path254"
           style="fill:#3b46a3;fill-opacity:1;fill-rule:nonzero;stroke:none"
           d="m 0,0 c 0,-5.895 -4.779,-10.674 -10.674,-10.674 -5.895,0 -10.674,4.779 -10.674,10.674 0,5.894 4.779,10.673 10.674,10.673 C -4.779,10.673 0,5.894 0,0" /></g><g
         transform="translate(453.4795,620.2456)"
         id="g256"><path
           id="path258"
           style="fill:#5ccaec;fill-opacity:1;fill-rule:nonzero;stroke:none"
           d="m 0,0 c 0,-4.85 -3.992,-8.782 -8.916,-8.782 -4.926,0 -8.918,3.932 -8.918,8.782 0,4.85 3.992,8.782 8.918,8.782 C -3.992,8.782 0,4.85 0,0" /></g><g
         transform="translate(453.21,621.8672)"
         id="g260"><path
           id="path262"
           style="fill:#15182a;fill-opacity:1;fill-rule:nonzero;stroke:none"
           d="m 0,0 c 0,-3.955 -3.206,-7.161 -7.161,-7.161 -3.955,0 -7.16,3.206 -7.16,7.161 0,3.954 3.205,7.161 7.16,7.161 C -3.206,7.161 0,3.954 0,0" /></g><g
         transform="translate(457.8027,620.1104)"
         id="g264"><path
           id="path266"
           style="fill:#ffffff;fill-opacity:1;fill-rule:nonzero;stroke:none"
           d="m 0,0 c 0,-1.641 -1.331,-2.972 -2.973,-2.972 -1.641,0 -2.971,1.331 -2.971,2.972 0,1.641 1.33,2.972 2.971,2.972 C -1.331,2.972 0,1.641 0,0" /></g><g
         transform="translate(465.7139,681.3672)"
         id="g268"><path
           id="path270"
           style="fill:#f14c3c;fill-opacity:1;fill-rule:evenodd;stroke:none"
           d="m 0,0 c 0,-11.944 -20.089,-21.627 -44.87,-21.627 -24.78,0 -44.868,9.683 -44.868,21.627 0,11.945 20.088,21.627 44.868,21.627 C -20.089,21.627 0,11.945 0,0" /></g><g
         id="g272"><g
           id="g274" /><g
           id="g286"><g
             style="opacity:0.600006"
             id="g284"
             clip-path="url(#clipPath278)"><g
               id="g282"
               transform="translate(510.0068,545.084)"><path
                 id="path280"
                 style="fill:#db2824;fill-opacity:1;fill-rule:nonzero;stroke:none"
                 d="m 0,0 c -0.065,-1.873 0.077,-2.261 1.21,-5.568 0.49,-1.435 1.55,-5.042 3.882,-8.066 0.798,-1.033 1.539,-1.387 1.873,-2.265 0.361,-0.955 -1.051,-1.209 -1.314,-0.986 -0.833,0.704 -1.388,1.532 -2.103,2.365 -5.996,6.98 -8.217,17.583 -8.804,18.2 -3.361,3.531 -3.685,4.407 -4.613,16.299 0,0 -0.365,9.59 7.907,32.757 0,0 9.036,43.301 -5.648,65.139 0,0 -15.438,30.499 -52.714,38.406 0,0 43.301,-20.709 38.406,-87.731 0,0 -4.142,-31.25 -6.401,-38.029 0,0 -13.932,-34.64 3.389,-48.948 0,0 9.256,-10.763 27.443,-14.711 1.287,-0.279 -3.409,2.347 -6.907,6.382 -4.476,5.159 -8.118,12.096 -6.824,12.528 1.153,0.387 1.937,-1.906 2.954,-2.954 17.113,-17.621 24.863,-13.323 26.79,-13.138 0,0 6.52,0.916 12.326,8.453 0,0 1.37,1.492 2.444,3.769 1.579,3.356 2.986,7.842 2.284,7.088 -3.218,-3.452 -8.495,-7.154 -13.821,-7.794 0,0 -14.24,1.738 -13.698,15.551 0,0 -3.89,1.183 -6.254,3.516 0,0 -1.183,1.414 -1.708,0.231 z" /></g></g></g></g><g
         id="g288"><g
           id="g290" /><g
           id="g302"><g
             style="opacity:0.600006"
             id="g300"
             clip-path="url(#clipPath294)"><g
               id="g298"
               transform="translate(337.5532,544.8408)"><path
                 id="path296"
                 style="fill:#db2824;fill-opacity:1;fill-rule:nonzero;stroke:none"
                 d="m 0,0 c 0.065,-1.872 -0.495,-3.409 -1.626,-6.716 -0.491,-1.433 -1.422,-4.027 -3.754,-7.049 -0.798,-1.035 -1.376,-1.21 -1.544,-2.127 -0.182,-1.002 0.947,-1.015 1.21,-0.793 0.833,0.706 2.038,2.338 2.753,3.17 5.996,6.982 7.797,17.653 8.383,18.269 3.362,3.531 4.277,5.263 5.205,17.154 0,0 -0.345,10.396 -8.618,33.563 0,0 -9.481,41.111 5.203,62.95 0,0 15.438,30.498 52.714,38.405 0,0 -43.3,-20.709 -38.405,-87.73 0,0 4.142,-31.252 6.401,-38.03 0,0 13.931,-34.64 -3.389,-48.949 0,0 -8.569,-10.989 -26.757,-14.936 -1.287,-0.28 3.608,2.921 7.106,6.954 4.476,5.16 7.398,11.484 6.103,11.918 -1.152,0.384 -2.667,-2.859 -3.684,-3.906 -17.113,-17.623 -24.296,-12.107 -26.224,-11.923 0,0 -6.386,0.841 -12.192,8.379 0,0 -1.888,2.767 -2.961,5.046 -1.58,3.355 -2.204,6.634 -1.502,5.882 3.218,-3.452 8.096,-7.15 13.422,-7.79 0,0 14.231,1.316 13.69,15.13 0,0 3.974,1.171 6.34,3.504 0,0 1.476,1.558 2.001,0.375 z" /></g></g></g></g><g
         transform="translate(400.4492,697.3125)"
         id="g304"><path
           id="path306"
           style="fill:#ffffff;fill-opacity:1;fill-rule:evenodd;stroke:none"
           d="M 0,0 C 0,0 37.08,8.899 55.622,-2.967 55.622,-2.967 28.924,-3.708 0,0" /></g><g
         transform="translate(455.7246,563.5186)"
         id="g308"><path
           id="path310"
           style="fill:#232864;fill-opacity:1;fill-rule:evenodd;stroke:none"
           d="m 0,0 c 0,0 0.653,5.394 -0.783,11.065 0,0 -1.799,4.671 -5.489,-0.554 0,0 -15.356,-21.546 -37.643,-20.164 0,0 -15.628,0.16 -24.349,15.17 0,0 -2.112,1.665 -0.522,-3.271 0,0 4.497,-20.584 29.2,-26.612 0,0 12.252,-2.38 15.038,-0.039 0,0 4.014,0.091 2.316,2.285 0,0 -3.535,5.183 3.183,13.161 0,0 7.665,8.857 15.469,7.243 0,0 4.236,-1.798 3.58,1.716" /></g><g
         transform="translate(464.5576,555.209)"
         id="g312"><path
           id="path314"
           style="fill:#232864;fill-opacity:1;fill-rule:evenodd;stroke:none"
           d="m 0,0 c 7.393,-8.055 7.546,-19.942 0.345,-26.549 -7.201,-6.608 -19.031,-5.433 -26.422,2.622 -7.392,8.056 -7.545,19.943 -0.344,26.55 C -19.22,9.23 -7.392,8.056 0,0" /></g><g
         transform="translate(446.2158,553.9766)"
         id="g316"><path
           id="path318"
           style="fill:#d32386;fill-opacity:1;fill-rule:evenodd;stroke:none"
           d="m 0,0 c 0,0 4.236,5.824 7.622,3.092 0,0 15.867,-6.727 11.188,-20.566 0,0 -12.845,-16.52 -26.481,3.513 0,0 -0.912,8.699 3.71,9.631 L 7.015,-11.444 C 7.015,-11.444 0.11,-5.707 0,0" /></g><g
         transform="translate(462.709,433.9414)"
         id="g320"><path
           id="path322"
           style="fill:#231f20;fill-opacity:1;fill-rule:evenodd;stroke:none"
           d="m 0,0 c 7.33,-4.418 15.287,-7.704 22.987,-11.439 7.597,-3.686 12.009,-9.585 13.95,-17.754 0.834,-3.519 2.096,-7.193 4.128,-10.127 9.161,-13.228 27.455,-16.885 41.367,-12.691 5.806,1.751 8.442,5.733 7.765,11.059 -2.516,19.813 -20.413,35.683 -42.24,30.804 -3.913,-0.876 -8.382,-1.445 -12.11,-0.41 -4.734,1.315 -9.192,4.073 -13.386,6.796 C 14.403,1.473 6.332,6.692 -1.505,11.954 -1.505,11.954 -3.012,1.816 0,0" /></g><g
         transform="translate(432.2861,447.998)"
         id="g324"><path
           id="path326"
           style="fill:#231f20;fill-opacity:1;fill-rule:evenodd;stroke:none"
           d="m 0,0 c -6.221,2.783 -12.13,5.589 -18.382,8.298 -7.465,3.234 -13.017,8.102 -15.971,15.838 -1.57,4.112 -0.898,5.547 3.512,6.196 10.424,1.535 15.371,0.427 25.151,-6.821 3.453,-2.949 7.082,-5.862 10.849,-8.743 L 5.078,11.427 c 0,0 -2.963,-5.714 -3.386,-6.349 z" /></g><g
         transform="translate(533.9893,562.9658)"
         id="g328"><path
           id="path330"
           style="fill:#231f20;fill-opacity:1;fill-rule:evenodd;stroke:none"
           d="M 0,0 C 1.223,2.332 0.732,5.452 -1.005,6.403 -2.975,7.481 -6.108,6.359 -7.25,4.167 -8.669,1.441 -8.242,-1.255 -6.229,-2.29 -4.244,-3.31 -1.135,-2.169 0,0 M 13.911,32.833 C 12.114,26.008 10.259,19.196 8.324,12.409 6.989,7.719 5.365,3.102 3.694,-1.482 2.77,-4.019 0.935,-6.017 -1.463,-7.244 c -4.778,-2.447 -10.686,-0.378 -10.604,6.714 0.052,4.555 1.586,8.72 3.165,12.872 3.293,8.648 6.587,17.295 9.987,25.9 0.191,0.487 2.253,6.307 3.411,9.549 0,0 4.34,-7.197 8.564,-11.48 z" /></g><g
         transform="translate(309.8984,590.3613)"
         id="g332"><path
           id="path334"
           style="fill:#231f20;fill-opacity:1;fill-rule:evenodd;stroke:none"
           d="M 0,0 C -1,-0.56 -1.992,0 -2.135,1.053 -2.22,1.687 -1.677,2.826 -1.155,3.016 -0.51,3.25 0.407,2.733 1.207,2.542 1.28,2.297 1.353,2.053 1.426,1.809 0.96,1.187 0.62,0.344 0,0 M 5.464,2.504 C 2.313,6.568 -0.854,10.621 -4.023,14.67 -7.667,9.961 -12.725,7.931 -16.284,7.056 c 0.719,-0.598 1.531,-1.134 2.46,-1.586 5.425,-2.646 8.923,-6.835 10.869,-12.538 0.583,-1.71 1.797,-3.303 3.051,-4.643 0.599,-0.64 2.076,-0.971 2.965,-0.73 2.844,0.768 4.444,2.908 5.087,5.724 0.811,3.55 -0.587,6.518 -2.684,9.221" /></g><g
         transform="translate(371.4873,438.9492)"
         id="g336"><path
           id="path338"
           style="fill:#231f20;fill-opacity:1;fill-rule:nonzero;stroke:none"
           d="M 0,0 C -1.415,-0.847 -3.167,-0.412 -3.889,0.963 -4.7,2.504 -3.964,4.845 -2.397,5.701 -1.183,6.366 0.209,5.925 0.948,4.639 1.879,3.018 1.439,0.858 0,0 m -105.155,-62.471 c 2.18,4.684 64.03,26.957 75.059,24.859 -25.035,-8.291 -49.799,-16.494 -75.059,-24.859 M 1.446,12.074 C -6.295,9.561 -14.085,7.202 -21.847,4.75 c -9.315,-2.941 -18.612,-5.943 -27.936,-8.854 -6.74,-2.106 -13.523,-4.078 -20.271,-6.163 -12.482,-3.858 -24.966,-7.713 -37.42,-11.662 -3.881,-1.23 -7.67,-2.755 -12.015,-4.333 4.002,-13.308 7.945,-26.426 11.894,-39.56 0.574,0.085 0.82,0.097 1.053,0.163 5.312,1.454 10.639,2.858 15.931,4.386 9.262,2.675 18.562,5.246 27.738,8.192 11.983,3.85 23.848,8.067 35.804,12.009 1.823,0.6 2.372,1.534 2.052,3.252 -0.98,5.274 -1.965,10.547 -2.939,15.821 -0.51,2.759 -1.115,5.507 -1.452,8.29 -0.173,1.41 0.198,2.751 1.513,3.817 6.295,5.109 13.398,6.186 21.034,4.229 6.578,-1.687 12.374,-0.687 17.315,4.174 1.069,1.052 2.159,2.095 3.315,3.052 1.119,0.927 2.307,1.681 3.603,2.169 L 9.655,14.784 C 6.92,13.879 4.187,12.965 1.446,12.074" /></g><g
         transform="translate(585.1914,514.3359)"
         id="g1320"><path
           id="path1322"
           style="fill:#4b4748;fill-opacity:1;fill-rule:evenodd;stroke:none"
           d="M 0,0 C 0.024,-0.133 0.05,-0.267 0.074,-0.399 1.393,0.717 2.918,1.626 3.727,3.252 3.668,3.389 3.608,3.525 3.55,3.661 1.616,3.561 -0.102,1.788 0,0" /></g><g
         transform="translate(675.8213,558.6777)"
         id="g1676" /><g
         transform="translate(387.6274,787.5049)"
         id="g1820"><path
           id="path1822"
           style="fill:#484da9;fill-opacity:1;fill-rule:evenodd;stroke:none"
           d="m 0,0 c 2.853,-23.067 -13.535,-44.081 -36.604,-46.934 -23.067,-2.853 -44.081,13.536 -46.933,36.603 -2.854,23.068 13.535,44.081 36.602,46.935 C -23.867,39.457 -2.853,23.068 0,0" /></g><g
         transform="translate(501.832,801.6294)"
         id="g1824"><path
           id="path1826"
           style="fill:#484da9;fill-opacity:1;fill-rule:evenodd;stroke:none"
           d="m 0,0 c 2.854,-23.067 -13.535,-44.081 -36.603,-46.934 -23.067,-2.853 -44.081,13.536 -46.934,36.602 -2.853,23.069 13.536,44.082 36.602,46.936 C -23.866,39.457 -2.853,23.068 0,0" /></g><g
         transform="translate(444.6074,800.3672)"
         id="g1828"><path
           id="path1830"
           style="fill:#484da9;fill-opacity:1;fill-rule:evenodd;stroke:none"
           d="m 0,0 c 2.853,-23.067 -13.536,-44.081 -36.604,-46.934 -23.067,-2.853 -44.081,13.536 -46.934,36.603 -2.852,23.068 13.535,44.081 36.602,46.935 C -23.867,39.456 -2.853,23.068 0,0" /></g><g
         transform="translate(472.9453,705.8584)"
         id="g1832"><path
           id="path1834"
           style="fill:#484da9;fill-opacity:1;fill-rule:evenodd;stroke:none"
           d="m 0,0 -115.945,-14.339 -8.639,69.846 115.946,14.34 z" /></g><g
         transform="translate(355.3701,700.1113)"
         id="g1836"><path
           id="path1838"
           style="fill:#484da9;fill-opacity:1;fill-rule:evenodd;stroke:none"
           d="m 0,0 c 0,0 -1.073,-18.854 14.847,-21.425 0,0 22.341,-6.314 47.032,-1.842 L 75.308,-7.99 55.662,29.292 Z" /></g><g
         transform="translate(471.5645,714.4814)"
         id="g1840"><path
           id="path1842"
           style="fill:#484da9;fill-opacity:1;fill-rule:evenodd;stroke:none"
           d="m 0,0 c 0,0 5.634,-18.025 -9.18,-24.396 0,0 -20.13,-11.566 -45.167,-13.245 l -16.745,11.545 9.971,40.946 z" /></g><g
         transform="translate(389.4814,785.8301)"
         id="g1844"><path
           id="path1846"
           style="fill:#ffffff;fill-opacity:1;fill-rule:evenodd;stroke:none"
           d="m 0,0 c 2.444,-19.762 -12.864,-37.923 -34.193,-40.561 -21.327,-2.638 -40.599,11.247 -43.042,31.009 -2.445,19.765 12.863,37.926 34.191,40.563 C -21.715,33.649 -2.444,19.766 0,0" /></g><g
         transform="translate(495.0732,798.8896)"
         id="g1848"><path
           id="path1850"
           style="fill:#ffffff;fill-opacity:1;fill-rule:evenodd;stroke:none"
           d="m 0,0 c 2.445,-19.762 -12.863,-37.924 -34.191,-40.562 -21.329,-2.637 -40.601,11.248 -43.045,31.01 -2.445,19.765 12.866,37.926 34.193,40.563 C -21.716,33.649 -2.444,19.765 0,0" /></g><g
         transform="translate(442.4082,795.7563)"
         id="g1852"><path
           id="path1854"
           style="fill:#ffffff;fill-opacity:1;fill-rule:evenodd;stroke:none"
           d="m 0,0 c 2.677,-21.646 -12.442,-41.332 -33.773,-43.97 -21.327,-2.637 -40.787,12.772 -43.464,34.418 -2.678,21.647 12.442,41.333 33.769,43.97 C -22.138,37.057 -2.678,21.647 0,0" /></g><g
         transform="translate(468.5215,709.0898)"
         id="g1856"><path
           id="path1858"
           style="fill:#ffffff;fill-opacity:1;fill-rule:evenodd;stroke:none"
           d="m 0,0 -107.202,-13.258 -8.106,65.542 107.203,13.258 z" /></g><g
         transform="translate(360.3892,704.7026)"
         id="g1860"><path
           id="path1862"
           style="fill:#ffffff;fill-opacity:1;fill-rule:evenodd;stroke:none"
           d="m 0,0 c 0,0 0.904,-20.879 13.175,-20.932 0,0 20.672,-5.961 43.499,-1.806 l 12.393,14.309 -18.233,35.01 z" /></g><g
         transform="translate(467.2305,717.1807)"
         id="g1864"><path
           id="path1866"
           style="fill:#ffffff;fill-opacity:1;fill-rule:evenodd;stroke:none"
           d="m 0,0 c 0,0 5.238,-16.918 -8.45,-22.87 0,0 -18.596,-10.818 -41.748,-12.35 l -15.504,10.859 9.152,38.396 z" /></g><g
         transform="translate(449.623,703.5449)"
         id="g1868"><path
           id="path1870"
           style="fill:#484da9;fill-opacity:1;fill-rule:evenodd;stroke:none"
           d="m 0,0 -5.627,62.236 c 0,0 -4.544,-6.772 -1.568,-30.831 l 2.91,-33.591 -26.274,-5.172 -32.496,-1.682 -5.359,33.287 c -2.976,24.06 -9.033,29.52 -9.033,29.52 l 9.704,-61.731 c -6.318,0.874 -23.129,6.248 -23.129,6.248 l 1.622,-6.424 c 22.179,-8.839 43.818,-6.454 54.282,-4.4 7.809,0 33.334,1.338 55.87,17.61 l 0.008,6.625 C 20.91,11.695 5.915,2.387 0,0" /></g><g
         transform="translate(358.751,701.8286)"
         id="g1872"><path
           id="path1874"
           style="fill:#484da9;fill-opacity:1;fill-rule:evenodd;stroke:none"
           d="m 0,0 c 0,0 51.597,-22.186 111.782,13.411 l -2.011,-6.15 c 0,0 -41.259,-35.636 -110.288,-13.121 z" /></g><g
         transform="translate(355.6982,737.9834)"
         id="g1876"><path
           id="path1878"
           style="fill:#484da9;fill-opacity:1;fill-rule:nonzero;stroke:none"
           d="m 0,0 c -2.976,24.06 -9.034,29.52 -9.034,29.52 l 6.131,-38.996 4.341,0.538 z" /></g><g
         transform="translate(464.6621,782.4189)"
         id="g1880"><path
           id="path1882"
           style="fill:#484da9;fill-opacity:1;fill-rule:nonzero;stroke:none"
           d="m 0,0 c 0,0 -4.545,-6.771 -1.568,-30.832 l 1.428,-10.773 3.658,2.701 z" /></g><g
         transform="translate(356.5063,817.063)"
         id="g1884"><path
           id="path1886"
           style="fill:#aaa0d3;fill-opacity:1;fill-rule:nonzero;stroke:none"
           d="m 0,0 c 0,0 -7.183,-15.913 4.563,-27.027 0,0 0.327,18.083 5.738,24.548 0,0 -5.523,2.076 -10.301,2.479" /></g><g
         transform="translate(444.584,828.3403)"
         id="g1888"><path
           id="path1890"
           style="fill:#aaa0d3;fill-opacity:1;fill-rule:nonzero;stroke:none"
           d="m 0,0 c 0,0 9.825,-12.541 1.142,-26.182 0,0 -4.371,16.351 -11.194,21.303 0,0 5.563,5.702 10.052,4.879" /></g><g
         transform="translate(399.3755,826.8931)"
         id="g1892"><path
           id="path1894"
           style="fill:#484da9;fill-opacity:1;fill-rule:evenodd;stroke:none"
           d="m 0,0 c 22.849,2.827 43.535,-10.939 47.615,-31.104 0.029,1.675 -0.044,3.366 -0.255,5.069 -2.678,21.648 -24.2,36.802 -48.075,33.849 -23.871,-2.952 -41.054,-22.894 -38.376,-44.541 0.114,-0.928 0.275,-1.84 0.46,-2.744 C -38.294,-19.861 -21.993,-2.72 0,0" /></g><g
         transform="translate(316.4541,763.625)"
         id="g1896"><path
           id="path1898"
           style="fill:#aaa0d3;fill-opacity:1;fill-rule:nonzero;stroke:none"
           d="m 0,0 c 0,0 27.06,-19.03 31.11,-1.978 l 3.077,-16.627 c 0,0 -21.018,-2.6 -34.187,18.605" /></g><g
         transform="translate(494.0371,785.6182)"
         id="g1900"><path
           id="path1902"
           style="fill:#aaa0d3;fill-opacity:1;fill-rule:nonzero;stroke:none"
           d="m 0,0 c 0,0 -20.686,-24.644 -28.77,-9.091 l 1.069,-16.876 c 0,0 20.094,2.193 27.701,25.967" /></g><g
         transform="translate(359.522,709.7451)"
         id="g1904"><path
           id="path1906"
           style="fill:#aaa0d3;fill-opacity:1;fill-rule:evenodd;stroke:none"
           d="M 0,0 C 0,0 18.432,-9.139 13.609,15.871 L 12.625,46.2 22.358,-14.165 1.222,-9.884 Z" /></g><g
         transform="translate(467.1123,724.0898)"
         id="g1908"><path
           id="path1910"
           style="fill:#aaa0d3;fill-opacity:1;fill-rule:evenodd;stroke:none"
           d="m 0,0 c 0,0 -15.651,-13.354 -17.065,12.077 l -6.436,29.654 5.555,-61.594 18.77,9.327 z" /></g><g
         transform="translate(384.8105,705.9009)"
         id="g1912"><path
           id="path1914"
           style="fill:#aaa0d3;fill-opacity:1;fill-rule:evenodd;stroke:none"
           d="m 0,0 1.758,-11.396 c 0,0 37.356,-2.157 58.769,8.81 L 59.412,9.975 c 0,0 -4.135,-8.45 -24.52,-11.491 0,0 -33.754,-7.686 -34.892,1.516" /></g><g
         transform="translate(364.1455,690.647)"
         id="g1916"><path
           id="path1918"
           style="fill:#aaa0d3;fill-opacity:1;fill-rule:evenodd;stroke:none"
           d="m 0,0 c 0,0 54.984,-17.94 102.563,11.59 0,0 -1.717,-14.444 -51.881,-21.305 0,0 -46.632,-5.328 -50.682,9.715" /></g><g
         transform="translate(267.60255,538.67064)"
         id="g156"><path
           id="path158"
           style="fill:#9b1f94;fill-opacity:1;fill-rule:nonzero;stroke:none"
           d="m 0,0 c 0,0 -4.207,-6.032 -4.768,-17.951 0,0 -1.963,0.702 -4.768,6.451 0,0 -3.366,10.518 6.451,12.341 0,0 4.067,1.682 3.085,-0.841" /></g></g><g
       id="g2060"
       transform="matrix(1.3333333,0,0,-1.3333333,-34.983866,1333.6836)"><g
         clip-path="url(#clipPath2066)"
         id="g2062"><g
           transform="translate(406.3394,784.8232)"
           id="g2068"><path
             id="path2070"
             style="fill:#100f0d;fill-opacity:1;fill-rule:nonzero;stroke:none"
             d="m 0,0 0.006,-0.038 c 7.725,5.068 5.516,10.68 5.516,10.68 -0.727,6.334 -7.627,11.969 -7.627,11.969 l -0.003,-0.04 -0.01,0.039 c 0,0 -5.749,-6.806 -5.298,-13.166 0,0 -1.105,-5.88 7.416,-9.444" /></g><g
           transform="translate(433.6279,786.2881)"
           id="g2072"><path
             id="path2074"
             style="fill:#100f0d;fill-opacity:1;fill-rule:nonzero;stroke:none"
             d="m 0,0 0.034,0.021 c 0,0 -8.184,3.519 -14.138,1.237 0,0 -6.415,-2.209 -6.876,-9.843 l -0.036,-0.018 c 5.253,-5.566 11.825,-2.168 11.825,-2.168 5.846,2.538 9.23,10.78 9.23,10.78 z" /></g><g
           transform="translate(390.3086,772.3569)"
           id="g2076"><path
             id="path2078"
             style="fill:#100f0d;fill-opacity:1;fill-rule:nonzero;stroke:none"
             d="m 0,0 c 0,0 7.59,-1.286 11.223,4.302 l -0.037,0.01 c -1.467,6.515 -8.568,8.414 -8.568,8.414 -6.27,1.149 -13.67,-3.813 -13.67,-3.813 l 0.037,-0.014 -0.039,0.002 C -11.054,8.901 -6.216,1.42 0,0" /></g><g
           transform="translate(434.0576,727.6167)"
           id="g2080"><path
             id="path2082"
             style="fill:#100f0d;fill-opacity:1;fill-rule:nonzero;stroke:none"
             d="m 0,0 c -0.593,0.512 -5.335,4.711 -9.682,11.732 -0.115,0.185 -1.36,2.812 -1.53,2.9 -4.536,8.098 -9.224,24.349 -9.224,24.349 -2.827,8.063 -5.503,9.176 -6.414,9.309 l -0.014,0.037 c 0,0 -0.056,0 -0.156,-0.022 -0.102,0.004 -0.157,-0.007 -0.157,-0.007 l -0.008,-0.04 c -0.869,-0.297 -3.296,-1.882 -4.596,-10.327 0,0 -1.778,-17.274 -4.749,-26.068 -0.152,-0.117 -0.738,-2.49 -0.816,-2.693 -3.191,-8.232 -7.416,-13.376 -7.416,-13.376 0.007,-10e-4 0.014,-0.002 0.021,-0.003 l -0.026,-0.021 c 0,0 0.842,-0.211 2.172,-0.344 2.25,-0.281 4.727,-0.257 6.923,0.528 0.106,0.03 0.211,0.061 0.316,0.093 0.285,0.05 1.124,0.239 2.122,0.849 1.59,0.799 3.103,1.975 4.349,3.683 l -0.012,0.01 c 0.005,0.006 0.011,0.01 0.016,0.015 -0.009,-0.049 -0.017,-0.097 -0.025,-0.146 l -0.077,-0.047 c 0,0 -0.889,-4.039 3.151,-10.023 l 0.062,0.035 c 2.152,-3.016 4.663,-5.066 4.663,-5.066 l 0.002,0.039 0.009,-0.039 c 0,0 2.084,2.468 3.645,5.82 l 0.028,-0.01 c 0.164,0.378 0.311,0.746 0.448,1.105 0.592,1.47 1.045,3.065 1.168,4.669 0.117,1.029 0.111,1.897 0.053,2.596 -0.019,0.405 -0.082,0.914 -0.235,1.489 -0.062,0.245 -0.118,0.412 -0.149,0.499 1.358,-1.212 2.836,-1.995 4.327,-2.475 1.524,-0.666 2.687,-0.58 2.687,-0.58 2.632,-0.481 5.46,0.112 7.858,0.963 0.859,0.284 1.365,0.516 1.365,0.516 z" /></g></g></g></g></svg>
